<svg width="413" height="127" viewBox="0 0 413 127" fill="none" xmlns="http://www.w3.org/2000/svg">
<path d="M108.887 51.5408L115.259 50.9257C115.639 53.0828 116.415 54.6678 117.586 55.6806C118.757 56.6939 120.338 57.2014 122.33 57.2044C124.439 57.2074 126.029 56.7602 127.099 55.8619C128.17 54.964 128.706 53.9122 128.708 52.708C128.709 51.9351 128.485 51.2766 128.036 50.7331C127.587 50.1896 126.802 49.7164 125.682 49.313C124.915 49.0441 123.168 48.5656 120.441 47.8777C116.931 46.995 114.47 45.9136 113.056 44.6318C111.067 42.83 110.075 40.6347 110.08 38.0469C110.082 36.3817 110.552 34.8245 111.491 33.3757C112.429 31.927 113.781 30.8252 115.544 30.0692C117.308 29.3131 119.436 28.9375 121.929 28.9414C126 28.9475 129.063 29.8519 131.117 31.6541C133.173 33.4569 134.25 35.8599 134.348 38.8641L127.799 39.1443C127.521 37.4639 126.922 36.2546 126.002 35.5168C125.081 34.7798 123.698 34.4094 121.854 34.4064C119.952 34.4038 118.461 34.7954 117.383 35.5819C116.689 36.0867 116.342 36.7625 116.341 37.6101C116.34 38.3835 116.663 39.0463 117.311 39.5972C118.136 40.2973 120.142 41.029 123.326 41.792C126.511 42.5559 128.865 43.344 130.391 44.1564C131.917 44.9697 133.109 46.0789 133.97 47.4856C134.831 48.8922 135.259 50.6295 135.256 52.6955C135.253 54.5693 134.734 56.3234 133.7 57.9574C132.665 59.5923 131.203 60.8055 129.314 61.5984C127.424 62.3909 125.072 62.7856 122.255 62.7808C118.155 62.7748 115.007 61.8148 112.812 59.9007C110.617 57.9869 109.309 55.1996 108.887 51.5408Z" fill="#BC051E"/>
<path d="M148.052 62.2395L148.093 35.07L138.469 35.0557L138.477 29.5235L164.251 29.5621L164.243 35.0943L154.641 35.0796L154.601 62.2491L148.052 62.2395Z" fill="#BC051E"/>
<path d="M194.314 62.3089L187.19 62.2985L184.369 54.866L171.404 54.8469L168.716 62.2707L161.769 62.2603L174.45 29.5777L181.375 29.5881L194.314 62.3089ZM182.275 49.3533L177.824 37.2119L173.426 49.3399L182.275 49.3533Z" fill="#BC051E"/>
<path d="M202.699 62.3219L191.154 29.6029L198.255 29.6137L206.428 53.8288L214.406 29.6376L221.353 29.648L209.69 62.3323L202.699 62.3219Z" fill="#BC051E"/>
<path d="M224.646 62.3549L224.694 29.6532L248.743 29.6892L248.735 35.2214L231.234 35.195L231.224 42.4444L247.507 42.4691L247.499 47.9788L231.216 47.954L231.203 56.8544L249.322 56.8817L249.314 62.3913L224.646 62.3549Z" fill="#BC051E"/>
<path d="M254.938 29.6988L267.902 29.7183C270.469 29.7222 272.382 29.8328 273.643 30.0501C274.904 30.2674 276.032 30.7194 277.026 31.4052C278.02 32.0905 278.849 33.0027 279.511 34.1409C280.173 35.28 280.503 36.5557 280.501 37.968C280.498 39.5 280.087 40.905 279.267 42.1824C278.446 43.4603 277.335 44.4176 275.933 45.0552C277.909 45.6377 279.426 46.6293 280.486 48.0282C281.546 49.4279 282.075 51.0728 282.072 52.9609C282.07 54.4483 281.725 55.8936 281.037 57.2981C280.349 58.7022 279.411 59.8239 278.222 60.6624C277.034 61.5008 275.569 62.0157 273.828 62.2061C272.736 62.3237 270.104 62.3939 265.93 62.4173L254.89 62.4009L254.938 29.6988ZM261.478 35.1516L261.467 42.7133L265.76 42.7198C268.311 42.7237 269.897 42.689 270.517 42.6153C271.638 42.4834 272.519 42.0943 273.162 41.4485C273.804 40.8026 274.127 39.952 274.128 38.8958C274.129 37.8847 273.854 37.0623 273.302 36.4299C272.75 35.797 271.928 35.4127 270.837 35.2774C270.188 35.2023 268.322 35.162 265.24 35.1572L261.478 35.1516ZM261.459 48.1562L261.447 56.9003L267.508 56.9095C269.868 56.9134 271.366 56.8487 271.999 56.7156C272.974 56.5386 273.766 56.1053 274.38 55.4143C274.992 54.7233 275.3 53.7985 275.302 52.6386C275.304 51.657 275.069 50.8238 274.598 50.1393C274.127 49.4548 273.445 48.9551 272.554 48.6415C271.662 48.3275 269.726 48.1687 266.747 48.1644L261.459 48.1562Z" fill="#BC051E"/>
<path d="M287.655 62.4495L287.704 29.7478L294.075 29.7569L307.317 51.615L307.35 29.7768L313.433 29.7864L313.386 62.4876L306.815 62.4781L293.772 41.1336L293.74 62.4586L287.655 62.4495Z" fill="#BC051E"/>
<path d="M320.111 62.498L320.159 29.7964L326.708 29.8059L326.66 62.5076L320.111 62.498Z" fill="#BC051E"/>
<path d="M332.965 62.5171L333.013 29.8154L339.385 29.825L352.627 51.6831L352.659 29.8449L358.743 29.854L358.696 62.5557L352.125 62.5462L339.081 41.2012L339.05 62.5266L332.965 62.5171Z" fill="#BC051E"/>
<path d="M374.138 62.5791L374.158 48.8159L362.305 29.8597L369.982 29.8714L377.596 42.8205L385.093 29.8939L392.637 29.9052L380.685 48.8705L380.665 62.5891L374.138 62.5791Z" fill="#BC051E"/>
<path d="M167.235 97.902L162.605 97.8955L160.771 93.0639L152.344 93.0521L150.597 97.8773L146.081 97.8708L154.323 76.6269L158.824 76.6334L167.235 97.902ZM159.41 89.4806L156.516 81.5887L153.658 89.4723L159.41 89.4806Z" fill="#BC051E"/>
<path d="M169.508 97.9059L169.539 76.6503L178.498 76.6638C180.75 76.6672 182.388 76.8603 183.408 77.2437C184.429 77.6272 185.245 78.3073 185.857 79.285C186.469 80.2623 186.774 81.3792 186.772 82.6354C186.77 84.2299 186.303 85.5468 185.371 86.5843C184.44 87.6223 183.049 88.2747 181.198 88.5423C182.118 89.0854 182.876 89.6809 183.474 90.3294C184.072 90.9783 184.879 92.1291 185.893 93.7843L188.461 97.9345L183.37 97.9263L180.299 93.2968C179.209 91.6424 178.463 90.5992 178.061 90.1685C177.659 89.7378 177.233 89.4424 176.782 89.2823C176.331 89.1218 175.617 89.0411 174.64 89.0394L173.777 89.0385L173.763 97.9124L169.508 97.9059ZM173.782 85.6461L176.932 85.6509C178.974 85.6535 180.248 85.568 180.757 85.3954C181.265 85.2219 181.663 84.9235 181.951 84.4984C182.24 84.0733 182.384 83.5419 182.385 82.9043C182.386 82.189 182.198 81.6113 181.819 81.1706C181.442 80.7299 180.908 80.4514 180.218 80.3343C179.873 80.2852 178.837 80.2597 177.111 80.2566L173.79 80.2519L173.782 85.6461Z" fill="#BC051E"/>
<path d="M195.508 97.9445L195.534 80.2844L189.277 80.2753L189.283 76.6794L206.037 76.705L206.031 80.3009L199.79 80.2918L199.765 97.9519L195.508 97.9445Z" fill="#BC051E"/>
<path d="M208.752 97.9645L208.783 76.7089L224.415 76.7319L224.41 80.3278L213.035 80.3104L213.028 85.0228L223.612 85.0393L223.606 88.6204L213.022 88.6044L213.013 94.3894L224.791 94.4072L224.786 97.9883L208.752 97.9645Z" fill="#BC051E"/>
<path d="M241.897 90.1993L246.022 91.5249C245.386 93.8442 244.331 95.5654 242.857 96.6893C241.384 97.8136 239.516 98.3731 237.254 98.3701C234.454 98.3657 232.155 97.3985 230.355 95.4669C228.556 93.5362 227.658 90.8981 227.664 87.5538C227.669 84.0161 228.579 81.2695 230.394 79.3145C232.209 77.3604 234.592 76.3849 237.546 76.3892C240.124 76.3931 242.218 77.1648 243.827 78.7042C244.784 79.6138 245.501 80.9199 245.978 82.6215L241.762 83.6304C241.515 82.5278 240.997 81.6573 240.206 81.0175C239.417 80.379 238.456 80.0589 237.324 80.0567C235.762 80.0545 234.493 80.6175 233.519 81.7471C232.543 82.877 232.054 84.7083 232.05 87.2406C232.047 89.9278 232.523 91.8424 233.481 92.9845C234.437 94.127 235.683 94.6987 237.216 94.7009C238.348 94.7022 239.321 94.3417 240.138 93.6182C240.952 92.8947 241.539 91.7552 241.897 90.1993Z" fill="#BC051E"/>
<path d="M249.679 98.0261L249.711 76.7705L253.967 76.7765L253.955 85.1434L262.296 85.1555L262.308 76.7896L266.565 76.7961L266.533 98.0517L262.277 98.0456L262.291 88.7514L253.95 88.7384L253.936 98.0326L249.679 98.0261Z" fill="#BC051E"/>
<path d="M270.453 92.3881L270.459 88.3138L278.397 88.325L278.391 92.4002L270.453 92.3881Z" fill="#BC051E"/>
<path d="M279.673 91.1549L283.815 90.7554C284.062 92.1573 284.566 93.1875 285.328 93.8459C286.089 94.5044 287.117 94.8344 288.411 94.8366C289.782 94.8388 290.815 94.5477 291.511 93.9639C292.208 93.3805 292.556 92.6973 292.557 91.9135C292.558 91.4112 292.412 90.9835 292.121 90.6296C291.828 90.2769 291.318 89.9689 290.59 89.707C290.092 89.5326 288.956 89.2211 287.183 88.7739C284.902 88.2001 283.302 87.4974 282.384 86.6646C281.091 85.493 280.446 84.0663 280.448 82.3842C280.45 81.3015 280.755 80.2891 281.366 79.3479C281.976 78.4062 282.855 77.6896 284.001 77.199C285.147 76.7076 286.53 76.4629 288.151 76.4651C290.797 76.4694 292.787 77.0576 294.124 78.2288C295.459 79.4004 296.159 80.9628 296.224 82.9156L291.967 83.0969C291.786 82.0042 291.396 81.2187 290.798 80.7394C290.199 80.2601 289.301 80.0189 288.102 80.0176C286.866 80.0154 285.898 80.2701 285.197 80.7815C284.745 81.1094 284.519 81.5488 284.519 82.0997C284.518 82.6024 284.729 83.0331 285.15 83.3914C285.686 83.8468 286.989 84.3223 289.059 84.818C291.129 85.3147 292.66 85.8265 293.652 86.3544C294.643 86.8832 295.419 87.6045 295.978 88.518C296.538 89.4328 296.816 90.5619 296.814 91.9053C296.812 93.1233 296.475 94.2636 295.802 95.3255C295.13 96.3882 294.179 97.1768 292.951 97.6921C291.723 98.2074 290.194 98.4633 288.363 98.4607C285.698 98.4568 283.652 97.833 282.225 96.5881C280.798 95.3445 279.947 93.5332 279.673 91.1549Z" fill="#BC051E"/>
<path d="M305.131 98.109L305.158 80.4492L298.902 80.4401L298.907 76.8442L315.66 76.869L315.655 80.4648L309.414 80.4557L309.387 98.1159L305.131 98.109Z" fill="#BC051E"/>
<path d="M335.201 98.1544L330.569 98.1471L328.736 93.3167L320.309 93.3037L318.562 98.1293L314.047 98.1223L322.289 76.8789L326.791 76.8858L335.201 98.1544ZM327.376 89.733L324.482 81.8407L321.623 89.7243L327.376 89.733Z" fill="#BC051E"/>
<path d="M340.651 98.1627L333.147 76.8954L337.763 76.9023L343.075 92.6418L348.261 76.9179L352.776 76.9244L345.195 98.1696L340.651 98.1627Z" fill="#BC051E"/>
<path d="M58.2184 106.023C81.1905 106.023 99.8131 87.2465 99.8131 64.0847C99.8131 40.9229 81.1905 22.1465 58.2184 22.1465C35.2463 22.1465 16.6237 40.9229 16.6237 64.0847C16.6237 87.2465 35.2463 106.023 58.2184 106.023Z" fill="white" stroke="black" stroke-width="1.2"/>
<path d="M58.1151 50.8645L66.7997 36.851L92.1945 77.8493L74.7362 77.8232L58.1151 50.8645Z" fill="#FEDC00"/>
<path d="M41.3546 77.7733L24.3132 77.7473L58.248 23.0444L66.7993 36.851" fill="#BC051E"/>
<path d="M58.1151 50.8645L74.7362 77.8232L58.0355 104.725L41.3865 77.7733L58.1151 50.8645Z" fill="white"/>
<path d="M50.0767 64.2057L58.0674 77.1387L66.0959 64.2296L58.1056 51.2961L50.0767 64.2057Z" fill="#AEAFB2" stroke="black" stroke-width="1.2"/>
<path d="M58.4765 77.8093L66.4672 90.7423L74.4958 77.8332L66.5051 64.9001L58.4765 77.8093Z" fill="#AEAFB2" stroke="black" stroke-width="1.2"/>
<path d="M41.599 77.7837L49.5892 90.7172L57.6182 77.808L49.6267 64.8745L41.599 77.7837Z" fill="#AEAFB2" stroke="black" stroke-width="1.2"/>
<path d="M50.0517 91.4021L58.0424 104.336L66.0709 91.4255L58.0807 78.4925L50.0517 91.4021Z" fill="#AEAFB2" stroke="black" stroke-width="1.2"/>
</svg>
