<svg width="19" height="19" viewBox="0 0 19 19" fill="none" xmlns="http://www.w3.org/2000/svg">
<g clip-path="url(#clip0)">
<path d="M14.4535 0C13.2393 0 12.0976 0.473161 11.2388 1.33188L7.69845 4.87228C7.96903 4.83451 8.23935 4.79349 8.51593 4.79349C9.27854 4.79349 10.0258 4.94164 10.7128 5.21634L12.9181 3.01107C13.3286 2.60111 13.8736 2.37498 14.4535 2.37498C15.6508 2.37498 16.6249 3.34909 16.6249 4.54646C16.6249 5.12631 16.3988 5.67134 15.9888 6.08185L12.0194 10.0514C11.1983 10.8713 9.76961 10.8719 8.94855 10.052L7.27051 11.7324C8.12868 12.5899 9.27036 13.0625 10.4839 13.0625C11.6981 13.0625 12.8398 12.5893 13.6986 11.7306L17.6681 7.76107C18.5268 6.90235 19 5.76063 19 4.54646C19 2.03928 16.9607 0 14.4535 0V0Z" fill="#3C3D5A"/>
<path d="M8.26633 13.8045L6.08188 15.989C5.67137 16.3989 5.12631 16.6251 4.5465 16.6251C3.34913 16.6251 2.37502 15.6509 2.37502 14.4536C2.37502 13.8738 2.60115 13.3287 3.01111 12.9182L6.98066 8.94864C7.80172 8.12876 9.23042 8.12817 10.0515 8.94805L11.7295 7.26768C10.0126 5.55252 7.01895 5.55197 5.30147 7.26941L1.33188 11.239C0.473124 12.0977 0 13.2394 0 14.4535C0 16.9608 2.03928 19 4.54646 19C5.76063 19 6.90231 18.5268 7.76107 17.6681L11.2545 14.1747C10.9994 14.209 10.7457 14.25 10.4839 14.25C9.70959 14.25 8.95958 14.0952 8.26633 13.8045Z" fill="#3C3D5A"/>
</g>
<defs>
<clipPath id="clip0">
<rect width="19" height="19" fill="white"/>
</clipPath>
</defs>
</svg>
