<svg width="22" height="22" viewBox="0 0 22 22" fill="none" xmlns="http://www.w3.org/2000/svg">
<path d="M20.0664 0H1.93359C0.86741 0 0 0.86741 0 1.93359V20.0664C0 21.1326 0.86741 22 1.93359 22H20.0664C21.1326 22 22 21.1326 22 20.0664V1.93359C22 0.86741 21.1326 0 20.0664 0ZM20.7109 20.0664C20.7109 20.4218 20.4218 20.7109 20.0664 20.7109H1.93359C1.5782 20.7109 1.28906 20.4218 1.28906 20.0664V1.93359C1.28906 1.5782 1.5782 1.28906 1.93359 1.28906H20.0664C20.4218 1.28906 20.7109 1.5782 20.7109 1.93359V20.0664Z" fill="#3C3D5A"/>
<path d="M19.4299 13.9426C18.7008 12.4678 15.5258 12.3232 13.8788 12.3605C12.9063 11.3585 11.7638 10.0851 10.9125 8.8451C11.8298 6.10838 12.0487 4.28049 11.5629 3.40848C10.9521 2.31213 10.1088 2.18791 9.52315 2.43691C8.50096 2.87176 7.81505 4.64658 8.55725 7.07921C8.74369 7.69032 9.07408 8.34791 9.49015 9.015C8.96687 10.4878 8.30142 12.0369 7.6009 13.4342C5.9304 14.0074 4.03359 14.9643 3.03727 16.51C2.64523 17.1181 2.59293 17.8726 2.89737 18.5283C3.3961 19.6024 4.49082 19.892 5.80128 18.5713C6.27269 18.0961 6.78892 17.4164 7.33569 16.5509C7.72198 15.9395 8.11742 15.2429 8.50582 14.4956C10.0259 14.0295 11.7536 13.7502 13.3543 13.6691C14.2367 14.5564 14.9079 15.1572 14.9995 15.2387C15.7086 15.8845 16.8583 16.5441 17.8483 16.4277C18.4158 16.3609 18.8974 16.0579 19.2409 15.5512C19.7361 14.8207 19.5719 14.2298 19.4299 13.9426ZM6.28781 15.7956C4.92149 17.9771 4.26648 18.1495 4.18024 18.1625C4.16292 18.1467 4.11957 18.0995 4.06655 17.9854C3.95113 17.7368 3.97189 17.4391 4.12069 17.2083C4.60305 16.4601 5.4699 15.7795 6.63853 15.216C6.52114 15.4166 6.404 15.6101 6.28781 15.7956ZM10.0278 3.62311C10.0328 3.62096 10.0386 3.61989 10.0451 3.61989C10.1175 3.61989 10.2786 3.75197 10.4368 4.03587C10.5852 4.30227 10.6232 5.27801 10.0332 7.33475C9.93423 7.11784 9.85229 6.90678 9.79015 6.70307C9.22503 4.85073 9.7312 3.74927 10.0278 3.62311ZM9.26306 12.955C9.66537 12.0904 10.0466 11.1936 10.3865 10.3078C10.9579 11.0631 11.5917 11.8002 12.202 12.4647C11.2075 12.5643 10.2069 12.7301 9.26306 12.955ZM18.1739 14.8278C18.0021 15.0812 17.8299 15.1316 17.699 15.1473C17.0624 15.2237 16.1386 14.5317 15.866 14.2843C15.8637 14.2822 15.8614 14.28 15.859 14.278C15.8478 14.268 15.5962 14.0433 15.2002 13.6674C15.2142 13.6681 15.2282 13.6689 15.2422 13.6697C17.2161 13.7817 18.137 14.2359 18.2744 14.5138C18.3135 14.5931 18.2413 14.7283 18.1739 14.8278Z" fill="#3C3D5A"/>
</svg>
